<?xml version="1.0" encoding="UTF-8"?>
<svg width="154px" height="114px" viewBox="0 0 154 114" version="1.1" xmlns="http://www.w3.org/2000/svg" xmlns:xlink="http://www.w3.org/1999/xlink">
    <!-- Generator: Sketch 51.2 (57519) - http://www.bohemiancoding.com/sketch -->
    <title>merittrac logo without tagline</title>
    <desc>Created with Sketch.</desc>
    <defs></defs>
    <g id="MTS---Multiple-Exam-Booking" stroke="none" stroke-width="1" fill="none" fill-rule="evenodd">
        <g id="0.2-Login-Copy-2" transform="translate(-256.000000, -23.000000)" fill="#E9833B">
            <g id="merittrac-logo-without-tagline" transform="translate(256.000000, 23.000000)">
                <path d="M28.3916,55.9077 L19.3036,55.9077 L19.3036,61.9437 L19.3036,71.0317 L19.3036,79.5717 C19.3036,89.3997 27.0526,97.4167 36.7736,97.8507 L36.7736,88.7417 C32.0756,88.3217 28.3916,84.3787 28.3916,79.5717 L28.3916,71.0317 L36.9096,71.0317 L36.9096,61.9437 L28.3916,61.9437 L28.3916,55.9077 Z" id="Fill-1"></path>
                <path d="M46.6509,51.5508 L46.6509,29.0838 C46.6489,21.5208 40.5169,15.3908 32.9529,15.3908 C29.4289,15.3908 26.2259,16.7328 23.7979,18.9198 C21.3709,16.7328 18.1679,15.3908 14.6439,15.3908 C7.0799,15.3908 0.9479,21.5208 0.9449,29.0838 L0.9449,51.5508 L10.0329,51.5508 L10.0329,29.1028 L10.0339,29.1028 C10.0339,29.0978 10.0329,29.0938 10.0329,29.0888 C10.0329,26.5428 12.0969,24.4778 14.6439,24.4778 C17.1909,24.4778 19.2549,26.5428 19.2549,29.0888 C19.2549,29.0938 19.2539,29.0978 19.2539,29.1028 L19.2549,29.1028 L19.2549,51.5508 L28.3419,51.5508 L28.3419,29.1028 L28.3429,29.1028 C28.3429,29.0978 28.3419,29.0938 28.3419,29.0888 C28.3419,26.5428 30.4059,24.4778 32.9529,24.4778 C35.4999,24.4778 37.5639,26.5428 37.5639,29.0888 C37.5639,29.0938 37.5629,29.0978 37.5629,29.1028 L37.5639,29.1028 L37.5639,51.5508 L46.6509,51.5508 Z" id="Fill-3"></path>
                <path d="M98.6938,33.4404 C98.6938,28.6324 102.3778,24.6904 107.0768,24.2704 L107.0768,15.1614 C97.3548,15.5954 89.6068,23.6114 89.6068,33.4404 L89.6068,51.5504 L98.6938,51.5504 L98.6938,33.4404 Z" id="Fill-5"></path>
                <path d="M43.4111,79.3472 L43.4111,97.4572 L52.4981,97.4572 L52.4981,79.3472 C52.4981,74.5392 56.1821,70.5972 60.8811,70.1762 L60.8811,61.0682 C51.1601,61.5022 43.4111,69.5182 43.4111,79.3472" id="Fill-7"></path>
                <path d="M113.5405,16.2114 C113.5375,16.3174 113.5255,28.9774 113.5255,29.0844 L113.5255,51.5504 L122.6125,51.5504 L122.6125,29.1034 L122.6135,29.1034 C122.6135,29.0984 122.6125,29.0934 122.6125,29.0884 C122.6125,28.9804 122.6295,16.3184 122.6375,16.2114 L113.5405,16.2114 Z" id="Fill-9"></path>
                <path d="M118.0825,10.5361 C120.8615,10.5361 123.1145,8.2961 123.1415,5.5241 C123.1415,5.5111 123.1395,5.4991 123.1395,5.4871 L123.1395,5.3901 C123.0935,2.6341 120.8495,0.4141 118.0825,0.4141 C115.2875,0.4141 113.0215,2.6801 113.0215,5.4751 C113.0215,8.2701 115.2875,10.5361 118.0825,10.5361" id="Fill-11"></path>
                <path d="M80.1021,88.7632 C75.0141,88.7632 70.8891,84.6382 70.8891,79.5502 C70.8891,74.4622 75.0141,70.3372 80.1021,70.3372 C85.1381,70.3372 89.2241,74.3792 89.3071,79.3952 L89.3071,79.5712 C89.3071,79.5942 89.3101,79.6162 89.3101,79.6392 C89.2621,84.6852 85.1601,88.7632 80.1021,88.7632 M98.3981,79.6392 C98.3981,79.6092 98.4021,79.5802 98.4021,79.5502 C98.4021,79.4982 98.3951,79.4492 98.3951,79.3972 L98.3951,61.4612 L89.3071,61.4612 L89.3071,63.7512 C86.6011,62.1712 83.4621,61.2502 80.1021,61.2502 C69.9951,61.2502 61.8021,69.4432 61.8021,79.5502 C61.8021,89.6572 69.9951,97.8502 80.1021,97.8502 C85.5861,97.8502 90.4931,95.4262 93.8471,91.6052 C95.8861,93.9332 98.5021,95.7422 101.4731,96.8052 L101.4731,86.4362 C99.6021,84.7642 98.4181,82.3422 98.3981,79.6392" id="Fill-13"></path>
                <path d="M67.9902,24.1548 C72.4692,24.1548 76.2072,27.3268 77.0812,31.5478 L58.8992,31.5478 C59.7732,27.3268 63.5112,24.1548 67.9902,24.1548 M67.9902,51.7408 C68.0152,51.7408 68.0392,51.7388 68.0632,51.7388 L68.0632,42.7228 C68.0392,42.7228 68.0152,42.7258 67.9902,42.7258 C64.5672,42.7258 61.5852,40.8688 59.9742,38.1118 L85.5712,38.1118 L85.5712,38.1108 L85.6832,38.1108 C86.0782,36.6138 86.2912,35.0608 86.2912,33.4408 C86.2912,23.3338 78.0972,15.1398 67.9902,15.1398 C57.8832,15.1398 49.6902,23.3338 49.6902,33.4408 C49.6902,43.5478 57.8832,51.7408 67.9902,51.7408" id="Fill-15"></path>
                <path d="M146.8594,52.147 L146.8594,43.038 C142.1604,42.618 138.4764,38.675 138.4764,33.867 L138.4764,25.327 L146.9944,25.327 L146.9944,16.239 L138.4764,16.239 L138.4764,10.204 L129.3894,10.204 L129.3894,16.239 L129.3894,25.327 L129.3894,33.867 C129.3894,43.696 137.1374,51.712 146.8594,52.147" id="Fill-17"></path>
                <path d="M120.9663,73.4653 C117.7903,73.4653 115.2073,76.0483 115.2073,79.2243 C115.2073,79.9023 115.7573,80.4523 116.4353,80.4523 C117.1143,80.4523 117.6643,79.9023 117.6643,79.2243 C117.6643,77.4033 119.1453,75.9223 120.9663,75.9223 C121.9943,75.9223 122.9463,76.3933 123.5793,77.2133 C123.9933,77.7503 124.7643,77.8493 125.3023,77.4353 C125.8393,77.0213 125.9393,76.2503 125.5253,75.7123 C124.4233,74.2843 122.7613,73.4653 120.9663,73.4653" id="Fill-19"></path>
                <path d="M138.1826,91.7344 L136.1196,93.7974 L134.5516,92.2304 C135.8386,90.8934 136.9196,89.3584 137.7546,87.6784 L129.8166,83.1404 C128.4186,86.4284 125.1896,88.7514 121.3906,88.7514 C116.3176,88.7514 112.2036,84.6384 112.2036,79.5644 C112.2036,74.4904 116.3176,70.3784 121.3906,70.3784 C125.1866,70.3784 128.4436,72.6804 129.8446,75.9644 L129.8496,75.9644 L137.7576,71.4434 C134.7676,65.4284 128.5636,61.2934 121.3906,61.2934 C111.3006,61.2934 103.1196,69.4734 103.1196,79.5644 C103.1196,89.6554 111.3006,97.8354 121.3906,97.8354 C125.1946,97.8354 128.7236,96.6694 131.6476,94.6804 L133.4426,96.4754 L131.3786,98.5384 L146.7446,113.9044 L153.5486,107.1004 L138.1826,91.7344 Z" id="Fill-21"></path>
            </g>
        </g>
    </g>
</svg>